<svg width="1400" height="860" viewBox="0 0 1400 860" fill="none" xmlns="http://www.w3.org/2000/svg">
  <defs>
    <linearGradient id="bg" x1="0" y1="0" x2="1400" y2="860" gradientUnits="userSpaceOnUse">
      <stop stop-color="#F0FDF4"/>
      <stop offset="1" stop-color="#ECFEFF"/>
    </linearGradient>
    <linearGradient id="hero" x1="140" y1="150" x2="1260" y2="690" gradientUnits="userSpaceOnUse">
      <stop stop-color="#10B981" stop-opacity="0.16"/>
      <stop offset="1" stop-color="#06B6D4" stop-opacity="0.12"/>
    </linearGradient>
    <filter id="shadow" x="0" y="0" width="1400" height="860" filterUnits="userSpaceOnUse" color-interpolation-filters="sRGB">
      <feDropShadow dx="0" dy="16" stdDeviation="20" flood-color="#0F172A" flood-opacity="0.08"/>
    </filter>
  </defs>

  <rect width="1400" height="860" rx="32" fill="url(#bg)"/>

  <text x="92" y="88" fill="#0F172A" font-family="Segoe UI, sans-serif" font-size="44" font-weight="700">EcoTrack - Application Preview</text>
  <text x="92" y="126" fill="#475569" font-family="Segoe UI, sans-serif" font-size="22">Fast, friendly waste sorting dashboard with scan flow and activity insights</text>

  <g filter="url(#shadow)">
    <rect x="80" y="160" width="1240" height="620" rx="30" fill="white"/>
  </g>
  <rect x="80" y="160" width="1240" height="620" rx="30" fill="url(#hero)"/>

  <rect x="120" y="210" width="560" height="240" rx="24" fill="white"/>
  <text x="150" y="274" fill="#0F172A" font-family="Segoe UI, sans-serif" font-size="46" font-weight="700">One scan at a time</text>
  <text x="150" y="318" fill="#0F172A" font-family="Segoe UI, sans-serif" font-size="46" font-weight="700">for a greener planet</text>
  <text x="150" y="360" fill="#64748B" font-family="Segoe UI, sans-serif" font-size="24">AI-assisted sorting with points, streaks, and recycling guidance.</text>

  <rect x="150" y="390" width="210" height="52" rx="14" fill="#10B981"/>
  <text x="184" y="424" fill="white" font-family="Segoe UI, sans-serif" font-size="22" font-weight="700">Start Scanning</text>

  <rect x="720" y="210" width="560" height="240" rx="24" fill="white"/>
  <text x="760" y="270" fill="#0F172A" font-family="Segoe UI, sans-serif" font-size="30" font-weight="700">Today Overview</text>

  <rect x="760" y="300" width="140" height="120" rx="18" fill="#F1F5F9"/>
  <text x="785" y="338" fill="#334155" font-family="Segoe UI, sans-serif" font-size="16" font-weight="600">Scans</text>
  <text x="790" y="382" fill="#0F172A" font-family="Segoe UI, sans-serif" font-size="42" font-weight="700">1248</text>

  <rect x="920" y="300" width="160" height="120" rx="18" fill="#ECFDF5"/>
  <text x="947" y="338" fill="#065F46" font-family="Segoe UI, sans-serif" font-size="16" font-weight="600">CO2 Saved</text>
  <text x="955" y="382" fill="#065F46" font-family="Segoe UI, sans-serif" font-size="42" font-weight="700">342kg</text>

  <rect x="1100" y="300" width="140" height="120" rx="18" fill="#FFFBEB"/>
  <text x="1135" y="338" fill="#92400E" font-family="Segoe UI, sans-serif" font-size="16" font-weight="600">Rank</text>
  <text x="1121" y="382" fill="#92400E" font-family="Segoe UI, sans-serif" font-size="34" font-weight="700">Silver II</text>

  <rect x="120" y="490" width="760" height="250" rx="24" fill="white"/>
  <text x="160" y="548" fill="#0F172A" font-family="Segoe UI, sans-serif" font-size="30" font-weight="700">Recent Activity</text>

  <rect x="160" y="574" width="680" height="48" rx="12" fill="#F8FAFC"/>
  <text x="182" y="605" fill="#334155" font-family="Segoe UI, sans-serif" font-size="20" font-weight="600">Plastic Water Bottle</text>
  <text x="735" y="605" fill="#0F172A" font-family="Segoe UI, sans-serif" font-size="20" font-weight="700">+15 pts</text>

  <rect x="160" y="632" width="680" height="48" rx="12" fill="#F8FAFC"/>
  <text x="182" y="663" fill="#334155" font-family="Segoe UI, sans-serif" font-size="20" font-weight="600">Cardboard Box</text>
  <text x="735" y="663" fill="#0F172A" font-family="Segoe UI, sans-serif" font-size="20" font-weight="700">+20 pts</text>

  <rect x="900" y="490" width="380" height="250" rx="24" fill="#052E2B"/>
  <text x="934" y="545" fill="#A7F3D0" font-family="Segoe UI, sans-serif" font-size="28" font-weight="700">Daily Goal</text>
  <text x="934" y="582" fill="#D1FAE5" font-family="Segoe UI, sans-serif" font-size="20">Scan 5 more items today</text>

  <rect x="934" y="616" width="312" height="18" rx="9" fill="#134E4A"/>
  <rect x="934" y="616" width="232" height="18" rx="9" fill="#10B981"/>
  <text x="1178" y="632" fill="#D1FAE5" font-family="Segoe UI, sans-serif" font-size="16" font-weight="600">74%</text>

  <circle cx="1230" cy="544" r="14" fill="#10B981"/>
  <circle cx="1260" cy="544" r="9" fill="#6EE7B7"/>
</svg>
